<svg xmlns="http://www.w3.org/2000/svg" viewBox="0 0 1155.7 485.78">
    <title>2OG_RafisaMap_Umriss_Version4</title>
    <g id="Standard-Boden">
        <polygon id="Hintergrund" class="main-floor" points="1155.7 3.67 1.53 3.67 1.53 453.39 0 454.82 33.05 485.78 99.16 485.78 131.91 455.12 646 455.12 676.98 484.13 743.09 484.13 774.07 455.12 1155.7 455.12 1155.7 3.67" />
    </g>
    <g id="Aussenbereiche">
        <g id="Eingang_Ausgang" data-name="Eingang/Ausgang">
            <rect id="Ausgang_Exit" data-name="Ausgang/Exit" class="exit-field" x="718.95" y="123.24" width="186.71" height="195.91" />
            <polygon id="Ausgang" class="exit-arrow" points="734 130.54 724.88 130.54 743.13 165.48 761.37 130.54 752.25 130.54 752.14 110.97 743.13 110.97 734.11 110.97 734 130.54" />
            <text id="TextEIN_AUS" class="exit-text" transform="matrix(0.02, 1, -1, 0.02, 726.73, 156.94)">Eingang/Ausgang</text>
            <polygon id="Notausgang" class="emergency-arrow" points="749.59 308.96 754.03 308.96 745.15 291.96 736.26 308.96 740.71 308.96 740.76 318.49 745.15 318.49 749.53 318.49 749.59 308.96" />
        </g>
        <g id="Treppe">
            <g id="Ebene_33" data-name="Ebene 33">
                <polygon class="polygon-circle" points="852.98 262.86 825.03 262.86 805.27 274.06 805.27 289.9 825.03 301.1 852.98 301.1 872.74 289.9 872.74 274.06 852.98 262.86" />
                <rect class="stairs-renctangle" x="774.88" y="270.7" width="26.99" height="7.65" />
                <rect class="stairs-renctangle" x="774.88" y="278.35" width="26.99" height="7.65" />
                <rect class="stairs-renctangle" x="774.88" y="286" width="26.99" height="7.65" />
                <rect class="stairs-renctangle" x="774.88" y="293.65" width="26.99" height="7.65" />
                <rect class="stairs-renctangle" x="856.53" y="419.87" width="15.3" height="5.67" transform="translate(383.21 1175.5) rotate(-90)" />
                <rect class="stairs-renctangle" x="861.93" y="419.87" width="15.3" height="5.67" transform="translate(388.61 1180.89) rotate(-90)" />
                <rect class="stairs-renctangle" x="867.33" y="419.87" width="15.3" height="5.67" transform="translate(394.01 1186.29) rotate(-90)" />
                <rect class="stairs-renctangle" x="872.72" y="419.87" width="15.3" height="5.67" transform="translate(399.41 1191.69) rotate(-90)" />
                <rect class="stairs-renctangle" x="878.02" y="419.84" width="15.3" height="5.67" transform="translate(404.73 1196.96) rotate(-90)" />
                <rect class="stairs-renctangle" x="883.42" y="419.84" width="15.3" height="5.67" transform="translate(410.13 1202.36) rotate(-90)" />
                <rect class="stairs-renctangle" x="888.82" y="419.84" width="15.3" height="5.67" transform="translate(415.53 1207.76) rotate(-90)" />
                <rect class="stairs-renctangle" x="894.22" y="419.84" width="15.3" height="5.67" transform="translate(420.92 1213.16) rotate(-90)" />
                <rect class="stairs-renctangle" x="899.61" y="419.84" width="15.3" height="5.67" transform="translate(426.32 1218.55) rotate(-90)" />
                <rect class="stairs-renctangle" x="905.01" y="419.84" width="15.3" height="5.67" transform="translate(431.72 1223.95) rotate(-90)" />
                <rect class="stairs-renctangle" x="910.41" y="419.84" width="15.3" height="5.67" transform="translate(437.12 1229.35) rotate(-90)" />
                <rect class="stairs-renctangle" x="915.8" y="419.84" width="15.3" height="5.67" transform="translate(442.51 1234.75) rotate(-90)" />
                <rect class="stairs-renctangle" x="921.2" y="419.84" width="15.3" height="5.67" transform="translate(447.91 1240.14) rotate(-90)" />
                <rect class="stairs-renctangle" x="874.73" y="271.46" width="26.99" height="7.65" />
                <rect class="stairs-renctangle" x="874.73" y="279.11" width="26.99" height="7.65" />
                <rect class="stairs-renctangle" x="874.73" y="286.76" width="26.99" height="7.65" />
                <rect class="stairs-renctangle" x="874.73" y="294.41" width="26.99" height="7.65" />
                <line class="polygon-circle" x1="876.54" y1="311.39" x2="797.5" y2="311.39" />
                <line class="polygon-circle" x1="800.58" y1="314.99" x2="797.21" y2="311.17" />
                <line class="polygon-circle" x1="797.21" y1="311.6" x2="800.68" y2="307.66" />
                <line class="polygon-circle" x1="800.45" y1="307.76" x2="800.35" y2="315.07" />
                <line class="polygon-circle" x1="788.76" y1="306.26" x2="788.76" y2="272.45" />
                <line class="polygon-circle" x1="785.59" y1="275.48" x2="788.95" y2="272.16" />
                <line class="polygon-circle" x1="788.58" y1="272.15" x2="792.05" y2="275.59" />
                <line class="polygon-circle" x1="791.96" y1="275.36" x2="785.51" y2="275.26" />
                <line class="polygon-circle" x1="888.71" y1="268.84" x2="888.71" y2="307.66" />
                <line class="polygon-circle" x1="891.88" y1="304.17" x2="888.51" y2="307.99" />
                <line class="polygon-circle" x1="888.89" y1="308" x2="885.41" y2="304.05" />
                <line class="polygon-circle" x1="885.5" y1="304.31" x2="891.95" y2="304.43" />
                <text id="Treppenhaus_Text" class="exit-undertext" transform="translate(817.61 285.71) scale(0.88 1)">
                    <tspan class="exit-undertext">Treppenhaus</tspan>
                </text>
            </g>
        </g>
    </g>
    <g id="Bueros">
        <g id="Sonstiges">
            <polygon id="_204_Helpdesk" data-name="204_Helpdesk" class="rooms" points="644.56 371.73 625.79 352.89 624.79 353.16 624.79 352.66 519.88 352.66 519.88 455.91 624.79 455.91 624.79 453.67 644.56 453.67 644.56 371.73" />
            <rect id="_206_Jupiter" data-name="206_Jupiter" class="rooms" x="776.99" y="324.18" width="125.88" height="129.61" />
            <rect id="_200_Tesla" data-name="200_Tesla" class="rooms" x="519.85" y="126.15" width="116.81" height="104.66" />
        </g>
        <g id="Lernende_Ausbilder">
            <rect id="_201" data-name="201" class="rooms" x="519.81" y="2.87" width="252.94" height="98.45" />
            <rect id="_202" data-name="202" class="rooms" x="384.83" y="2.94" width="130.78" height="228.66" />
            <rect id="_203" data-name="203" class="rooms" x="385.53" y="234.16" width="130.78" height="219.77" />
            <polygon id="_205" data-name="205" class="rooms" points="773.64 456.1 773.64 372.7 773.54 372.7 773.54 361.1 710.04 361.1 709.54 360.83 709.05 361.1 708.4 361.1 708.4 361.45 687.39 372.7 646.89 372.7 646.89 457.94 647.51 457.94 646.89 458.52 672.79 482.76 691.81 482.76 692.4 483.3 747.9 483.3 775.65 457.94 773.64 456.1" />
        </g>
    </g>
    <g id="Bereiche">
        <g id="Toiletten">
            <rect id="WC_Herren" class="toilet-room" x="640.09" y="233.83" width="78.07" height="85.32" />
            <rect id="Dusche" class="toilet-room" x="640.09" y="181.13" width="78.07" height="51.87" />
            <rect id="WC_Damen" class="toilet-room" x="640.09" y="127.37" width="78.07" height="53.59" />
        </g>
        <g id="Zwischenbereich">
            <rect id="Lounge" class="break-area" x="521.51" y="237.14" width="50.27" height="85.45" />
        </g>
        <g id="Gehbereiche">
            <polygon id="Wege" class="main-floor" points="767.79 100.26 592.09 100.26 572.05 100.26 442.82 100.26 442.82 118.2 443.05 118.2 443.05 327.08 442.82 327.08 442.82 347.2 519.3 347.2 519.3 327.08 465.5 327.08 465.5 118.2 572.05 118.2 572.05 233.19 592.09 233.19 592.09 118.2 767.79 118.2 767.79 100.26" />
        </g>
    </g>
    <g id="Linien">
        <g id="Aussenrand">
            <line class="outer-wall" x1="384.27" y1="455.9" x2="646.87" y2="455.9" />
            <line class="outer-wall" x1="674.23" y1="484.46" x2="644.89" y2="455.12" />
            <line class="outer-wall" x1="747.02" y1="484.13" x2="673.06" y2="484.13" />
            <line class="outer-wall" x1="777.21" y1="454.56" x2="745.59" y2="484.13" />
            <line class="outer-wall" x1="383.89" y1="1.5" x2="776.33" y2="1.5" />
            <line class="outer-wall" x1="384.89" y1="1.29" x2="384.89" y2="456.9" />
        </g>
        <g id="Waende">
            <g id="StatischeWaende">
                <line class="static-wall" x1="518.98" y1="1.5" x2="518.98" y2="100.26" />
                <line class="static-wall" x1="640.09" y1="126.43" x2="718.69" y2="126.43" />
                <line class="static-wall" x1="640.09" y1="126.43" x2="640.09" y2="322.86" />
                <line class="static-wall" x1="718.16" y1="280.53" x2="718.16" y2="322.86" />
                <line class="static-wall" x1="718.16" y1="208.01" x2="718.16" y2="259.64" />
                <line class="static-wall" x1="718.16" y1="124.39" x2="718.16" y2="156.78" />
                <line class="static-wall" x1="718.16" y1="181.34" x2="640.09" y2="181.34" />
                <line class="static-wall" x1="718.16" y1="233.83" x2="640.09" y2="233.83" />
                <line class="static-wall" x1="442.82" y1="233.93" x2="384.77" y2="233.93" />
                <line class="static-wall" x1="571.52" y1="233.59" x2="466" y2="233.59" />
                <line class="static-wall" x1="627.43" y1="350.81" x2="583.97" y2="350.55" />
                <line class="static-wall" x1="771.17" y1="123.24" x2="771.17" y2="200.75" />
                <line class="static-wall" x1="901.51" y1="321.8" x2="901.51" y2="455.91" />
                <line class="static-wall" x1="769.19" y1="123.24" x2="907.65" y2="123.24" />
                <line class="static-wall" x1="905.67" y1="200.75" x2="905.67" y2="123.24" />
                <line class="static-wall" x1="771.17" y1="254.52" x2="771.17" y2="322.7" />
                <line class="static-wall" x1="905.67" y1="255.92" x2="905.67" y2="322.48" />
                <line class="static-wall" x1="769.21" y1="322.48" x2="907.67" y2="322.48" />
                <line class="static-wall" x1="775.92" y1="456.32" x2="903.43" y2="456.32" />
                <line class="static-wall" x1="640.09" y1="233.72" x2="593.46" y2="233.72" />
                <line class="static-wall" x1="518.01" y1="118.73" x2="518.01" y2="327.08" />
                <line class="static-wall" x1="774.33" y1="3.08" x2="774.33" y2="121.36" />
                <line class="static-wall" x1="646.87" y1="355.21" x2="646.87" y2="455.9" />
                <line class="static-wall" x1="775.76" y1="356.8" x2="775.76" y2="456.12" />
                <line class="static-wall" x1="677.39" y1="180.43" x2="677.39" y2="174.04" />
                <line class="static-wall" x1="720" y1="322.59" x2="638.72" y2="322.33" />
                <line class="static-wall" x1="561.76" y1="351.3" x2="518.3" y2="351.03" />
                <line class="static-wall" x1="775.32" y1="358.9" x2="707.08" y2="358.9" />
                <line class="static-wall" x1="645.56" y1="369.47" x2="626.53" y2="350.44" />
                <line class="static-wall" x1="686.91" y1="370.86" x2="645.28" y2="370.32" />
                <line class="static-wall" x1="690.38" y1="368.16" x2="685.52" y2="370.96" />
                <line class="static-wall" x1="708.07" y1="358.74" x2="703.82" y2="362.39" />
                <line class="static-wall" x1="708.66" y1="357.19" x2="708.66" y2="351.08" />
                <line class="static-wall" x1="708.66" y1="328.19" x2="708.66" y2="322.08" />
                <line class="static-wall" x1="775.66" y1="330.19" x2="775.66" y2="324.08" />
                <line class="static-wall" x1="775.66" y1="358.19" x2="775.66" y2="352.08" />
                <line class="outer-wall" x1="677.28" y1="139.93" x2="677.28" y2="125.3" />
                <line class="outer-wall" x1="518.09" y1="347.12" x2="518.09" y2="454.59" />
            </g>
            <g id="VerschlosseneTuer">
                <g id="Notausgang-2" data-name="Notausgang">
                    <line class="emergency-wall" x1="718.16" y1="322" x2="770.77" y2="322" />
                </g>
            </g>
        </g>
    </g>
</svg>